<svg xmlns="http://www.w3.org/2000/svg" width="28" height="24" viewBox="0 0 28 24">
    <defs>
        <filter id="o8jy6qh1ta">
            <feColorMatrix in="SourceGraphic" values="0 0 0 0 0.290598 0 0 0 0 0.274677 0 0 0 0 0.262010 0 0 0 1.000000 0"/>
        </filter>
    </defs>
    <g fill="none" fill-rule="evenodd">
        <g filter="none" transform="translate(-471 -409)">
            <g>
                <path fill="#4a4643" d="M8.69 16.514c0-1.937 1.546-2.554 1.546-2.554s.783-3.02 1.164-4.533c.331-1.203.747-2.13 3.351-2.528.081-.01.167-.016.249-.026L11.542 4s-5.653 4.687-8.406 6.983c-.073.06-.13.187-.13.283-.007 2.362-.009 4.426 0 6.789.001.168.071.353.158.502.195.338.52.444.896.443 1.541-.003 3.083-.002 4.625-.002.002-.828.005-1.656.005-2.485v-.001.002zm7.755-9.894c1.135-.069 2.358-.092 3.55-.072v-.304c.008-.755.004-1.51.004-2.264V.705s0-.704-.996-.704h-1.63c-.984 0-.978.704-.978.704s-.02.99-.02 1.55c0 .337-.017.845-.017 1.224-.072-.054-.303-.216-.336-.244-1.095-.93-2.193-1.86-3.287-2.792-.69-.589-1.628-.592-2.32-.004-.743.63-1.485 1.258-2.23 1.887L.274 9.022c-.34.288-.36.502-.08.843l.764.927c.21.255.483.277.738.06l9.872-8.36 4.878 4.126h-.001v.002zm10.78 15.526V20.873c.03-.006.772-.128.772-.37 0-1.263.01-2.527-.005-3.788 0-1.615-1.314-2.34-1.314-2.34s-.656-2.697-.992-4.043c-.282-1.133-.825-1.86-2.794-2.13-2.231-.27-5.48-.27-7.783.003-2.194.351-2.544 1.167-2.822 2.226-.322 1.332-.98 3.992-.98 3.992s-1.301.543-1.301 2.25c0 1.285-.012 2.57-.002 3.855.002.21.67.339.724.343 0 .447-.003 1.588 0 2.02.008 1.082.414 1.109 1.69 1.109 1.307 0 1.647-.114 1.647-1.174v-1.802c3.046.353 6.858.353 9.82 0v.153c0 .375.004.598 0 .973 0 1.735.235 1.848 1.706 1.848 1.248.001 1.634-.113 1.634-1.852zM25.504 16c.822.005 1.497.672 1.496 1.496-.001.836-.669 1.498-1.5 1.504-.921.005-1.474-.831-1.499-1.439-.032-.753.61-1.565 1.504-1.56V16h-.001zM13.9 9.85c.38-1.184 9.965-1.07 10.192-.039.542 1.9.902 4.159.908 4.189-3.439-.433-8.611-.398-12 0 0 0 .339-2.403.9-4.152v.001zm-2.899 7.702c-.03-.728.607-1.565 1.513-1.552.818.011 1.488.676 1.486 1.492-.003.84-.666 1.5-1.495 1.508-.946.008-1.48-.867-1.504-1.447v-.001z" transform="translate(471 409)"/>
            </g>
        </g>
    </g>
</svg>