<svg width="308" height="149" viewBox="0 0 308 149" fill="none" xmlns="http://www.w3.org/2000/svg">
<g clip-path="url(#clip0_2170_5657)">
<path d="M0 8.6543C0 4.23602 3.58172 0.654297 8 0.654297H300C304.418 0.654297 308 4.23602 308 8.6543V140.654C308 145.073 304.418 148.654 300 148.654H8C3.58172 148.654 0 145.073 0 140.654V8.6543Z" fill="white"/>
<rect width="308" height="100" transform="translate(0 0.654297)" fill="#0045A0"/>
<path fill-rule="evenodd" clip-rule="evenodd" d="M104.164 60.531C104.17 60.5216 104.218 60.4556 104.256 60.3999C104.272 60.3751 104.301 60.3601 104.33 60.3601H107.158C107.196 60.3601 107.231 60.3843 107.244 60.4205C107.517 61.1816 107.744 62.2334 107.765 62.9943C107.765 63.0056 107.763 63.0168 107.759 63.0275C107.486 63.8093 106.631 66.5258 102.963 68.4066C101.174 69.3234 98.9937 69.7656 96.5346 69.6304C93.9804 69.4899 91.177 68.7296 88.3028 67.2743C85.3842 65.7964 82.7575 63.7879 80.5641 61.4626C78.4005 59.1686 76.7165 56.6295 75.5925 54.0562C74.5094 51.5751 74 49.1136 74 46.8402C74 37.3252 82.7911 36.6736 84.5912 36.6553C92.9898 36.5703 97.7637 41.7064 97.7637 41.7064C97.7963 41.7423 97.7963 41.7987 97.7619 41.8337C97.7274 41.8688 97.6712 41.87 97.6359 41.8366C97.6359 41.8366 91.7235 36.316 83.6458 37.4537C81.6826 37.7301 79.9677 38.4838 78.696 39.7482C77.0246 41.41 76.3684 43.7106 76.6176 46.2479C76.9929 50.0788 79.4265 54.446 83.5524 57.9935C87.6801 61.5435 92.5719 63.4717 96.7349 63.5408C99.4949 63.5868 101.934 62.8148 103.609 61.1499C103.804 60.9558 103.985 60.7529 104.153 60.5422C104.156 60.5381 104.16 60.5344 104.164 60.531Z" fill="white"/>
<path d="M107.042 58.7098L107.213 57.3073C106.206 58.4953 104.935 59.0902 103.399 59.0902C101.832 59.0902 100.686 58.5274 99.9606 57.4027C99.2353 56.277 98.9968 54.6921 99.245 52.647C99.4183 51.2207 99.7784 49.997 100.326 48.974C100.873 47.9519 101.567 47.1755 102.407 46.6448C103.247 46.1131 104.192 45.8482 105.242 45.8482C106.621 45.8482 107.643 46.3395 108.307 47.3222L108.986 41.7351H113.24L111.18 58.7098H107.042ZM156.714 58.7098L156.878 57.355C156.259 57.9408 155.635 58.3688 155.006 58.6383C154.378 58.9078 153.688 59.0426 152.935 59.0426C151.651 59.0426 150.677 58.7062 150.014 58.0324C149.351 57.3587 149.09 56.4429 149.231 55.2861C149.39 53.9707 149.999 52.9688 151.054 52.2785C152.109 51.5892 153.645 51.1969 155.663 51.1025L157.532 51.0072L157.592 50.5076C157.725 49.414 157.266 48.8677 156.216 48.8677C155.245 48.8677 154.638 49.2792 154.397 50.1033L150.603 49.7944C151.346 47.1636 153.401 45.8482 156.771 45.8482C158.636 45.8482 159.964 46.268 160.756 47.1077C161.547 47.9483 161.837 49.2316 161.628 50.9595L160.687 58.7098H156.714ZM83.3926 55.6867C83.3926 55.6867 87.1328 47.643 88.9179 43.8031C89.5227 42.5024 90.8237 41.6792 92.2451 41.6976C92.2958 41.6985 92.5205 41.6994 92.5714 41.6994C94.1516 41.7205 95.2753 42.5583 95.6832 44.3953C96.7438 49.172 98.8616 58.7098 98.8616 58.7098H94.1836L93.6152 55.4529H87.9499L86.8468 58.1195C84.547 56.8325 83.3926 55.6867 83.3926 55.6867ZM162.684 58.7098L164.746 41.7351H169L166.94 58.7098H162.684ZM133.747 58.7098L135.263 46.2286H139.517L138.002 58.7098H133.747ZM140.117 58.7098L141.633 46.2286H145.77L145.585 47.7503C146.079 47.1636 146.626 46.7282 147.225 46.4422C147.824 46.1571 148.499 46.0141 149.252 46.0141C149.69 46.0141 150.086 46.0544 150.436 46.1333L149.519 49.8182C149.201 49.7229 148.768 49.6762 148.219 49.6762C147.389 49.6762 146.727 49.8421 146.232 50.1748C145.633 50.5873 145.272 51.3005 145.149 52.3143L144.373 58.7098H140.117ZM127.494 58.7098L128.455 50.7926C128.514 50.3013 128.468 49.9447 128.315 49.7229C128.161 49.5011 127.873 49.3902 127.45 49.3902C126.948 49.3902 126.53 49.5414 126.196 49.8421C125.844 50.1592 125.635 50.5946 125.567 51.1492L124.649 58.7098H120.395L121.356 50.7926C121.415 50.3013 121.369 49.9447 121.215 49.7229C121.062 49.5011 120.774 49.3902 120.351 49.3902C119.849 49.3902 119.431 49.5414 119.097 49.8421C118.745 50.1592 118.535 50.5946 118.468 51.1492L117.55 58.7098H113.295L114.811 46.2286H118.948L118.772 47.6788C119.766 46.4587 120.992 45.8482 122.45 45.8482C123.218 45.8482 123.86 46.0141 124.376 46.3478C124.891 46.6805 125.252 47.1636 125.457 47.7979C126.039 47.1315 126.659 46.6402 127.317 46.3239C127.974 46.0068 128.695 45.8482 129.479 45.8482C130.732 45.8482 131.638 46.2286 132.196 46.9894C132.755 47.7503 132.945 48.8594 132.767 50.3178L131.748 58.7098H127.494ZM157.213 53.4317L155.841 53.5032C155.036 53.5509 154.436 53.6893 154.039 53.9194C153.643 54.1494 153.418 54.4941 153.361 54.9533C153.269 55.7142 153.686 56.0946 154.61 56.0946C155.315 56.0946 155.896 55.8929 156.352 55.4887C156.809 55.0844 157.078 54.5418 157.162 53.8598L157.213 53.4317ZM107.701 52.3143C107.832 51.2372 107.762 50.4599 107.49 49.9851C107.219 49.5093 106.739 49.2719 106.049 49.2719C104.654 49.2719 103.828 50.3334 103.57 52.4573C103.314 54.5656 103.876 55.6188 105.255 55.6188C105.944 55.6188 106.493 55.3576 106.902 54.8351C107.288 54.3594 107.54 53.638 107.658 52.6709L107.701 52.3143ZM91.946 45.9664L89.4964 51.8156H92.952L91.946 45.9664ZM135.406 44.8499L135.785 41.7351H140.086L139.708 44.8499H135.406Z" fill="white"/>
<path d="M183.54 44.8543V58.6543H191.34V56.3743H186.08V44.8543H183.54ZM201.271 53.4543C201.271 51.6543 201.011 50.3943 200.051 49.4543C199.291 48.7143 198.311 48.2943 196.831 48.2943C195.311 48.2943 194.211 48.7343 193.431 49.5343C192.451 50.5143 192.151 51.8943 192.151 53.7943C192.151 55.5543 192.411 56.7943 193.371 57.7343C194.131 58.4743 195.111 58.8943 196.631 58.8943C198.191 58.8943 199.211 58.4343 200.011 57.6143C200.971 56.6143 201.271 55.3343 201.271 53.4543ZM198.731 53.5343C198.731 54.7343 198.551 55.7343 198.111 56.2543C197.871 56.5543 197.411 56.8143 196.671 56.8143C196.011 56.8143 195.551 56.6143 195.291 56.3343C194.891 55.8743 194.691 54.9943 194.691 53.6743C194.691 52.5143 194.851 51.4743 195.311 50.9143C195.551 50.6343 195.971 50.3743 196.751 50.3743C197.451 50.3743 197.871 50.5743 198.131 50.8743C198.551 51.3343 198.731 52.3343 198.731 53.5343ZM204.204 51.2543C204.884 50.5543 205.664 50.2943 206.684 50.2943C208.004 50.2943 208.464 50.7343 208.464 52.1343V52.5143H207.204C205.764 52.5143 204.604 52.7143 203.684 53.3543C202.904 53.8943 202.484 54.6143 202.484 55.8543C202.484 56.8543 202.764 57.5543 203.324 58.0943C203.844 58.5743 204.524 58.8943 205.504 58.8943C206.764 58.8943 207.884 58.3743 208.604 57.1943V58.6543H210.804V52.1143C210.804 49.3943 209.464 48.3543 206.804 48.3543C205.244 48.3543 203.924 48.7143 202.944 49.7943L204.204 51.2543ZM208.484 54.2143C208.404 56.0743 206.964 56.9943 205.924 56.9943C205.164 56.9943 204.904 56.5143 204.904 55.7343C204.904 54.4143 205.684 54.2143 207.024 54.2143H208.484ZM213.177 48.5743V58.6543H215.657V54.8543C215.657 51.8943 216.757 50.5743 218.037 50.5743C218.877 50.5743 219.117 51.1543 219.117 52.2943V58.6543H221.597V51.7943C221.597 49.6143 220.557 48.3143 218.637 48.3143C217.117 48.3143 216.077 49.0943 215.517 50.3343V48.5743H213.177ZM230.409 49.4743C229.629 48.6543 228.409 48.3543 227.209 48.3543C225.029 48.3543 223.249 49.3343 223.249 51.3743C223.249 54.9343 228.269 54.0943 228.269 55.8743C228.269 56.7343 227.629 56.9543 226.749 56.9543C225.749 56.9543 224.889 56.6743 224.269 56.0543L223.049 57.6343C223.829 58.5343 225.249 58.8743 226.549 58.8743C228.589 58.8743 230.629 58.0543 230.629 55.7343C230.629 52.0943 225.649 52.8543 225.649 51.2343C225.649 50.5343 226.129 50.2943 227.009 50.2943C227.809 50.2943 228.569 50.5143 229.189 51.0143L230.409 49.4743Z" fill="white"/>
<rect x="175" y="35.6543" width="1" height="32" fill="white"/>
<path d="M95.6851 117.614V128.654H97.7171V124.91H99.5891C100.645 124.91 101.477 124.718 102.133 124.222C102.869 123.678 103.301 122.75 103.301 121.214C103.301 119.63 102.837 118.782 102.149 118.27C101.477 117.774 100.549 117.614 99.6531 117.614H95.6851ZM97.7171 119.39H99.5091C100.117 119.39 100.469 119.438 100.741 119.678C100.997 119.902 101.173 120.35 101.173 121.262C101.173 122.014 101.077 122.51 100.789 122.782C100.565 123.022 100.197 123.134 99.5891 123.134H97.7171V119.39ZM110.329 126.318C109.705 126.894 108.969 127.23 108.073 127.23C106.665 127.23 106.441 126.43 106.425 125.086L111.369 125.054C111.417 124.702 111.449 124.318 111.449 124.014C111.449 121.982 110.585 120.382 108.121 120.382C106.809 120.382 105.977 120.83 105.433 121.438C104.697 122.254 104.441 123.518 104.441 124.83C104.441 126.366 104.777 127.326 105.465 127.966C106.073 128.526 106.825 128.83 108.025 128.83C109.417 128.83 110.457 128.414 111.337 127.502L110.329 126.318ZM106.473 123.662C106.505 122.606 106.841 121.902 108.073 121.902C109.257 121.902 109.481 122.558 109.481 123.662H106.473ZM113.418 120.59V128.654H115.402V125.774C115.402 123.934 115.946 122.318 117.322 122.318C117.562 122.318 117.85 122.366 117.994 122.446L118.378 120.574C118.122 120.446 117.786 120.382 117.466 120.382C116.57 120.382 115.77 120.846 115.29 121.998L115.306 120.59H113.418ZM124.742 121.31C124.118 120.654 123.141 120.414 122.182 120.414C120.438 120.414 119.014 121.198 119.014 122.83C119.014 125.678 123.03 125.006 123.03 126.43C123.03 127.118 122.518 127.294 121.814 127.294C121.014 127.294 120.326 127.07 119.83 126.574L118.854 127.838C119.478 128.558 120.614 128.83 121.654 128.83C123.286 128.83 124.918 128.174 124.918 126.318C124.918 123.406 120.934 124.014 120.934 122.718C120.934 122.158 121.318 121.966 122.022 121.966C122.661 121.966 123.27 122.142 123.766 122.542L124.742 121.31ZM133.503 124.494C133.503 123.054 133.295 122.046 132.527 121.294C131.919 120.702 131.135 120.366 129.951 120.366C128.735 120.366 127.855 120.718 127.231 121.358C126.447 122.142 126.207 123.246 126.207 124.766C126.207 126.174 126.415 127.166 127.183 127.918C127.791 128.51 128.575 128.846 129.791 128.846C131.039 128.846 131.855 128.478 132.495 127.822C133.263 127.022 133.503 125.998 133.503 124.494ZM131.471 124.558C131.471 125.518 131.327 126.318 130.975 126.734C130.783 126.974 130.415 127.182 129.823 127.182C129.295 127.182 128.927 127.022 128.719 126.798C128.399 126.43 128.239 125.726 128.239 124.67C128.239 123.742 128.367 122.91 128.735 122.462C128.927 122.238 129.263 122.03 129.887 122.03C130.447 122.03 130.783 122.19 130.991 122.43C131.327 122.798 131.471 123.598 131.471 124.558ZM135.465 120.59V128.654H137.449V125.614C137.449 123.246 138.329 122.19 139.353 122.19C140.025 122.19 140.217 122.654 140.217 123.566V128.654H142.201V123.166C142.201 121.422 141.369 120.382 139.833 120.382C138.617 120.382 137.785 121.006 137.337 121.998V120.59H135.465ZM145.122 122.734C145.666 122.174 146.29 121.966 147.106 121.966C148.162 121.966 148.53 122.318 148.53 123.438V123.742H147.522C146.37 123.742 145.442 123.902 144.706 124.414C144.082 124.846 143.746 125.422 143.746 126.414C143.746 127.214 143.97 127.774 144.418 128.206C144.834 128.59 145.378 128.846 146.162 128.846C147.17 128.846 148.066 128.43 148.642 127.486V128.654H150.402V123.422C150.402 121.246 149.33 120.414 147.202 120.414C145.954 120.414 144.898 120.702 144.114 121.566L145.122 122.734ZM148.546 125.102C148.482 126.59 147.33 127.326 146.498 127.326C145.89 127.326 145.682 126.942 145.682 126.318C145.682 125.262 146.306 125.102 147.378 125.102H148.546ZM152.621 116.414V128.654H154.605V116.414H152.621ZM160.248 117.614V128.654H162.296V124.142H166.184V122.334H162.296V119.422H166.568V117.614H160.248ZM168.308 120.59V128.654H170.292V120.59H168.308ZM168.1 117.886C168.1 118.59 168.612 119.102 169.3 119.102C169.988 119.102 170.5 118.59 170.5 117.886C170.5 117.198 169.988 116.67 169.3 116.67C168.612 116.67 168.1 117.198 168.1 117.886ZM172.59 120.59V128.654H174.574V125.614C174.574 123.246 175.454 122.19 176.478 122.19C177.15 122.19 177.342 122.654 177.342 123.566V128.654H179.326V123.166C179.326 121.422 178.494 120.382 176.958 120.382C175.742 120.382 174.91 121.006 174.462 121.998V120.59H172.59ZM182.247 122.734C182.791 122.174 183.415 121.966 184.231 121.966C185.287 121.966 185.655 122.318 185.655 123.438V123.742H184.647C183.495 123.742 182.567 123.902 181.831 124.414C181.207 124.846 180.871 125.422 180.871 126.414C180.871 127.214 181.095 127.774 181.543 128.206C181.959 128.59 182.503 128.846 183.287 128.846C184.295 128.846 185.191 128.43 185.767 127.486V128.654H187.527V123.422C187.527 121.246 186.455 120.414 184.327 120.414C183.079 120.414 182.023 120.702 181.239 121.566L182.247 122.734ZM185.671 125.102C185.607 126.59 184.455 127.326 183.623 127.326C183.015 127.326 182.807 126.942 182.807 126.318C182.807 125.262 183.431 125.102 184.503 125.102H185.671ZM189.746 120.59V128.654H191.73V125.614C191.73 123.246 192.61 122.19 193.634 122.19C194.306 122.19 194.498 122.654 194.498 123.566V128.654H196.482V123.166C196.482 121.422 195.65 120.382 194.114 120.382C192.898 120.382 192.066 121.006 191.618 121.998V120.59H189.746ZM203.531 126.254C203.051 126.798 202.443 127.102 201.787 127.102C200.699 127.102 200.443 126.27 200.443 124.59C200.443 122.91 200.699 122.126 202.011 122.126C202.555 122.126 203.035 122.27 203.483 122.67L204.603 121.326C203.915 120.622 202.955 120.382 201.979 120.382C200.747 120.382 199.947 120.766 199.403 121.326C198.587 122.19 198.363 123.39 198.363 124.718C198.363 126.046 198.587 127.07 199.259 127.838C199.771 128.43 200.539 128.814 201.691 128.814C202.923 128.814 203.979 128.382 204.715 127.486L203.531 126.254ZM211.61 126.318C210.986 126.894 210.25 127.23 209.354 127.23C207.946 127.23 207.722 126.43 207.706 125.086L212.65 125.054C212.698 124.702 212.73 124.318 212.73 124.014C212.73 121.982 211.866 120.382 209.402 120.382C208.09 120.382 207.258 120.83 206.714 121.438C205.978 122.254 205.722 123.518 205.722 124.83C205.722 126.366 206.058 127.326 206.746 127.966C207.354 128.526 208.106 128.83 209.306 128.83C210.698 128.83 211.738 128.414 212.618 127.502L211.61 126.318ZM207.754 123.662C207.786 122.606 208.122 121.902 209.354 121.902C210.538 121.902 210.762 122.558 210.762 123.662H207.754Z" fill="#444240"/>
</g>
<defs>
<clipPath id="clip0_2170_5657">
<path d="M0 8.6543C0 4.23602 3.58172 0.654297 8 0.654297H300C304.418 0.654297 308 4.23602 308 8.6543V140.654C308 145.073 304.418 148.654 300 148.654H8C3.58172 148.654 0 145.073 0 140.654V8.6543Z" fill="white"/>
</clipPath>
</defs>
</svg>
