<svg width="308" height="149" viewBox="0 0 308 149" fill="none" xmlns="http://www.w3.org/2000/svg">
<g clip-path="url(#clip0_2170_5668)">
<path d="M0 8.6543C0 4.23602 3.58172 0.654297 8 0.654297H300C304.418 0.654297 308 4.23602 308 8.6543V140.654C308 145.073 304.418 148.654 300 148.654H8C3.58172 148.654 0 145.073 0 140.654V8.6543Z" fill="white"/>
<rect width="308" height="100" transform="translate(0 0.654297)" fill="#0045A0"/>
<path d="M135.131 58.2718C135.171 58.4916 135.271 58.7113 135.421 58.9311C135.581 59.1508 135.8 59.3506 136.09 59.5304C136.38 59.7202 136.749 59.8701 137.199 59.9799C137.648 60.0898 138.188 60.1498 138.827 60.1498C139.317 60.1498 139.766 60.1098 140.196 60.0199C140.625 59.94 140.995 59.8501 141.314 59.7502C141.634 59.6603 141.894 59.5604 142.104 59.4705H142.114C142.323 59.3806 142.563 59.4605 142.663 59.6603L143.862 62.0577C143.962 62.2575 143.882 62.5072 143.682 62.6171C143.572 62.677 143.442 62.7369 143.302 62.8069C142.953 62.9767 142.523 63.1465 142.004 63.3063C141.484 63.4761 140.865 63.616 140.166 63.7359C139.466 63.8557 138.697 63.9157 137.858 63.9157C136.809 63.9157 135.83 63.7459 134.911 63.4062C133.992 63.0666 133.193 62.5771 132.514 61.9378C131.835 61.2885 131.295 60.4994 130.906 59.5704C130.516 58.6314 130.316 57.5725 130.316 56.3738C130.316 55.2551 130.516 54.2262 130.906 53.2872C131.295 52.3482 131.835 51.5591 132.534 50.9098C133.223 50.2605 134.042 49.751 134.971 49.3814C135.91 49.0218 136.919 48.832 137.998 48.832C139.007 48.832 139.916 48.9719 140.715 49.2416C141.514 49.5113 142.194 49.8809 142.743 50.3504C143.292 50.8199 143.712 51.3493 144.002 51.9487C144.291 52.548 144.431 53.1673 144.431 53.7966C144.431 54.4859 144.311 55.1052 144.071 55.6646C143.832 56.214 143.392 56.6835 142.773 57.0631C142.144 57.4427 141.294 57.7424 140.226 57.9422C139.147 58.1519 137.778 58.2518 136.12 58.2518H135.131V58.2718ZM134.911 55.355C136.16 55.355 137.139 55.305 137.828 55.2151C138.518 55.1252 139.037 55.0053 139.367 54.8555C139.706 54.7057 139.906 54.5358 139.986 54.356C140.056 54.1662 140.096 53.9864 140.096 53.7966C140.096 53.4071 139.916 53.0674 139.566 52.7778C139.207 52.4881 138.677 52.3482 137.968 52.3482C137.469 52.3482 137.029 52.4381 136.65 52.6179C136.28 52.7977 135.96 53.0275 135.711 53.3072C135.461 53.5869 135.271 53.9065 135.131 54.2761C135.001 54.6158 134.931 54.9854 134.911 55.355Z" fill="white"/>
<path d="M162.432 65.4056C162.522 65.1558 162.801 65.036 163.051 65.1359H163.061C163.301 65.2258 163.62 65.3256 164 65.4255C164.379 65.5254 164.829 65.6253 165.348 65.7052C165.858 65.7851 166.417 65.8351 167.017 65.8351C167.616 65.8351 168.165 65.7652 168.685 65.6353C169.194 65.5055 169.634 65.2857 170.003 64.976C170.363 64.6664 170.653 64.2768 170.862 63.7973C171.072 63.3178 171.172 62.7285 171.172 62.0192V61.7096C171.082 61.7995 170.922 61.9293 170.713 62.0991C170.493 62.269 170.213 62.4388 169.874 62.6086C169.524 62.7784 169.124 62.9282 168.655 63.0581C168.185 63.188 167.666 63.2579 167.087 63.2579C166.078 63.2579 165.149 63.1081 164.3 62.7984C163.45 62.4887 162.711 62.0392 162.102 61.4399C161.483 60.8405 161.013 60.1113 160.674 59.2422C160.334 58.3732 160.164 57.3843 160.164 56.2855C160.164 55.1866 160.364 54.1777 160.753 53.2687C161.143 52.3597 161.682 51.5806 162.382 50.9313C163.071 50.282 163.9 49.7725 164.859 49.4029C165.818 49.0433 166.877 48.8535 168.036 48.8535C169.324 48.8535 170.513 49.0933 171.612 49.5827C172.7 50.0722 173.609 50.7814 174.319 51.7104C174.768 52.3098 175.108 53.009 175.338 53.8081C175.567 54.6073 175.687 55.6262 175.687 56.8648V61.0403C175.687 62.4987 175.477 63.7573 175.068 64.8062C174.658 65.8651 174.089 66.7341 173.36 67.4134C172.631 68.0926 171.771 68.6021 170.763 68.9317C169.764 69.2614 168.675 69.4212 167.496 69.4212C166.677 69.4212 165.918 69.3713 165.229 69.2714C164.539 69.1715 163.93 69.0516 163.391 68.9118C162.861 68.7719 162.422 68.6321 162.072 68.4922C161.962 68.4523 161.872 68.4123 161.792 68.3723C161.563 68.2724 161.453 68.0027 161.543 67.773L162.432 65.4056ZM164.769 56.2855C164.769 57.3543 165.069 58.1434 165.668 58.6629C166.267 59.1823 167.027 59.452 167.966 59.452C168.885 59.452 169.644 59.1623 170.253 58.583C170.862 58.0036 171.162 57.2344 171.162 56.2855C171.162 55.3365 170.862 54.5573 170.253 53.948C169.644 53.3387 168.885 53.039 167.966 53.039C167.496 53.039 167.067 53.1189 166.677 53.2887C166.287 53.4585 165.948 53.6883 165.668 53.9879C165.388 54.2876 165.169 54.6372 165.009 55.0268C164.849 55.4164 164.769 55.8359 164.769 56.2855Z" fill="white"/>
<path d="M176.188 56.3953C176.188 55.3165 176.397 54.3076 176.807 53.3986C177.216 52.4796 177.786 51.6904 178.505 51.0212C179.224 50.3519 180.063 49.8225 181.012 49.4329C181.961 49.0533 182.99 48.8535 184.099 48.8535C185.178 48.8535 186.207 49.0433 187.166 49.4329C188.125 49.8125 188.964 50.3419 189.683 51.0212C190.402 51.6904 190.971 52.4896 191.381 53.3986C191.791 54.3176 192 55.3165 192 56.3953C192 57.4842 191.791 58.4831 191.381 59.3921C190.971 60.3111 190.402 61.1002 189.683 61.7695C188.964 62.4388 188.125 62.9682 187.166 63.3578C186.207 63.7374 185.178 63.9372 184.099 63.9372C183 63.9372 181.971 63.7474 181.012 63.3578C180.063 62.9782 179.224 62.4488 178.505 61.7695C177.786 61.1002 177.216 60.3011 176.807 59.3921C176.387 58.4831 176.188 57.4742 176.188 56.3953ZM184.089 59.9015C184.558 59.9015 184.988 59.8116 185.388 59.6318C185.787 59.452 186.137 59.2123 186.436 58.9026C186.736 58.593 186.966 58.2234 187.126 57.7938C187.285 57.3643 187.365 56.8948 187.365 56.3953C187.365 55.8959 187.285 55.4264 187.126 54.9969C186.966 54.5673 186.736 54.1977 186.436 53.8881C186.137 53.5784 185.787 53.3387 185.388 53.1588C184.988 52.979 184.548 52.8891 184.089 52.8891C183.599 52.8891 183.16 52.979 182.77 53.1588C182.381 53.3387 182.031 53.5784 181.731 53.8881C181.432 54.1977 181.202 54.5673 181.042 54.9969C180.882 55.4264 180.802 55.8959 180.802 56.3953C180.802 56.8948 180.882 57.3643 181.042 57.7938C181.202 58.2234 181.432 58.593 181.731 58.9026C182.031 59.2123 182.381 59.452 182.77 59.6318C183.16 59.8116 183.599 59.9015 184.089 59.9015Z" fill="white"/>
<path d="M155.45 49.2326C155.11 49.2326 154.83 49.5123 154.83 49.852V56.4448C154.83 57.4537 154.6 58.2029 154.131 58.6824C153.661 59.1719 153.012 59.4116 152.173 59.4116C151.274 59.4116 150.615 59.2118 150.195 58.8222C149.776 58.4327 149.566 57.7834 149.566 56.8843V49.842C149.566 49.5024 149.286 49.2227 148.947 49.2227H145.67C145.33 49.2227 145.051 49.5024 145.051 49.842V57.8133C145.051 58.7523 145.201 59.5515 145.51 60.2407C145.82 60.92 146.249 61.4894 146.799 61.9389C147.348 62.3884 147.998 62.718 148.737 62.9378C149.476 63.1575 150.275 63.2574 151.134 63.2574C151.863 63.2574 152.593 63.1276 153.322 62.8778C154.051 62.6281 154.59 62.2885 154.95 61.8589C154.95 63.2774 154.63 64.2963 154.001 64.9156C153.362 65.535 152.333 65.8446 150.894 65.8446C150.395 65.8446 149.896 65.8147 149.426 65.7447C148.947 65.6748 148.527 65.6049 148.147 65.525C147.778 65.4451 147.458 65.3552 147.208 65.2752H147.198C146.929 65.1853 146.639 65.3352 146.549 65.6049L145.8 67.8624C145.7 68.1721 145.86 68.5117 146.17 68.6216H146.18C146.499 68.7315 146.919 68.8514 147.438 68.9712C147.958 69.0911 148.567 69.201 149.256 69.2909C149.945 69.3808 150.705 69.4307 151.524 69.4307C152.702 69.4307 153.761 69.2809 154.72 69.0012C155.669 68.7115 156.498 68.252 157.188 67.6327C157.877 67.0034 158.406 66.1942 158.786 65.1953C159.155 64.1964 159.345 62.9877 159.345 61.5693V49.852C159.345 49.5123 159.066 49.2326 158.726 49.2326H155.45Z" fill="white"/>
<path d="M140.706 42.1999C140.716 42.1999 140.716 42.1999 140.706 42.1999L139.178 38.5039C131.086 41.8703 125.003 49.1224 123.285 57.9228C123.285 57.9128 123.275 57.9128 123.265 57.9228C123.175 57.7031 123.055 57.4434 122.925 57.1337C122.666 56.5244 122.366 55.8251 122.046 55.036C121.717 54.2468 121.377 53.3778 121.027 52.4388C120.878 52.0292 120.438 50.8605 119.969 49.5819C119.889 49.3721 119.689 49.2323 119.469 49.2323H115.533C115.164 49.2323 114.904 49.6019 115.034 49.9515C115.673 51.6496 116.352 53.4477 116.432 53.6475C116.502 53.8373 116.692 54.2568 116.992 54.9261C117.291 55.5854 117.661 56.3945 118.111 57.3335C118.56 58.2725 119.06 59.2914 119.609 60.3702C120.058 61.2592 120.528 62.1383 120.997 62.9873C121.187 63.327 121.537 63.5368 121.926 63.5368H126.292C126.671 63.5368 126.991 63.2371 127.001 62.8575C127.271 53.7673 132.944 46.0058 140.916 42.6894L140.706 42.1999Z" fill="white"/>
<path d="M157.266 36.8358L155.089 31.2918C154.849 30.6824 154.15 30.3728 153.53 30.6125L152.212 31.132C152.042 31.0421 151.842 31.0321 151.662 31.102L149.545 31.9311C149.355 32.001 149.225 32.1508 149.165 32.3307L145.499 33.7691C145.329 33.6792 145.13 33.6692 144.95 33.7391L142.832 34.5682C142.642 34.6382 142.512 34.788 142.452 34.9678L141.294 35.4273C140.684 35.667 140.375 36.3663 140.614 36.9856L142.792 42.5296C143.032 43.1389 143.731 43.4486 144.35 43.2089L145.739 42.6595C145.899 42.7294 146.079 42.7394 146.258 42.6694L148.376 41.8403C148.546 41.7704 148.676 41.6406 148.746 41.4807L152.462 40.0223C152.621 40.0922 152.801 40.1022 152.981 40.0323L155.099 39.2032C155.269 39.1333 155.398 39.0034 155.468 38.8436L156.607 38.3941C157.206 38.1543 157.506 37.4551 157.266 36.8358ZM145.399 41.7404C145.399 41.7404 144.241 40.7415 143.591 39.0833C142.892 37.4551 143.002 35.8768 143.002 35.8768C143.002 35.8768 142.992 35.5971 143.292 35.5871L145.799 41.7404C145.579 41.9502 145.399 41.7404 145.399 41.7404ZM152.142 39.0634C152.142 39.363 151.772 39.3131 151.772 39.3131C151.772 39.3131 150.993 39.353 150.763 39.353C150.534 39.353 150.444 39.2332 150.424 38.9435C150.414 38.6038 150.054 37.1155 149.874 36.646C149.665 36.0866 148.895 34.8679 148.596 34.4883C148.296 34.1087 148.596 33.9789 148.596 33.9789L149.385 33.2596C149.605 33.0599 149.795 33.2596 149.795 33.2596C149.795 33.2596 150.953 34.2586 151.603 35.9168C152.242 37.565 152.142 38.6738 152.142 39.0634ZM154.29 32.2008C154.1 32.2707 153.89 32.1808 153.82 31.991L153.7 31.6913C153.63 31.5016 153.72 31.2918 153.91 31.2219C154.1 31.1519 154.31 31.2418 154.38 31.4316L154.499 31.7313C154.569 31.9111 154.479 32.1309 154.29 32.2008ZM156.417 37.7947C156.228 37.8647 156.018 37.7747 155.948 37.585L155.828 37.2853C155.758 37.0955 155.848 36.8857 156.038 36.8158C156.228 36.7459 156.437 36.8358 156.507 37.0256L156.627 37.3252C156.697 37.515 156.607 37.7248 156.417 37.7947Z" fill="white"/>
<path d="M49.1908 125.886C48.5188 126.638 47.7028 127.07 46.7268 127.07C45.9748 127.07 45.5428 126.814 45.2708 126.478C44.8708 125.982 44.6468 125.118 44.6468 123.23C44.6468 121.47 44.8388 120.446 45.1748 119.95C45.4468 119.55 45.9427 119.214 46.9188 119.214C47.7188 119.214 48.4868 119.438 49.1268 120.046L50.2628 118.654C49.3988 117.694 48.1668 117.422 46.9988 117.422C45.4788 117.422 44.5028 117.87 43.8307 118.574C42.7747 119.694 42.5028 121.342 42.5028 123.214C42.5028 124.99 42.7428 126.718 43.7988 127.79C44.4228 128.43 45.3348 128.846 46.6948 128.846C48.2628 128.846 49.4628 128.286 50.4068 127.134L49.1908 125.886ZM52.5904 122.734C53.1344 122.174 53.7584 121.966 54.5744 121.966C55.6304 121.966 55.9984 122.318 55.9984 123.438V123.742H54.9904C53.8384 123.742 52.9104 123.902 52.1744 124.414C51.5504 124.846 51.2144 125.422 51.2144 126.414C51.2144 127.214 51.4384 127.774 51.8864 128.206C52.3024 128.59 52.8464 128.846 53.6304 128.846C54.6384 128.846 55.5344 128.43 56.1104 127.486V128.654H57.8704V123.422C57.8704 121.246 56.7984 120.414 54.6704 120.414C53.4224 120.414 52.3664 120.702 51.5824 121.566L52.5904 122.734ZM56.0144 125.102C55.9504 126.59 54.7984 127.326 53.9664 127.326C53.3584 127.326 53.1504 126.942 53.1504 126.318C53.1504 125.262 53.7744 125.102 54.8464 125.102H56.0144ZM60.0895 120.59V128.654H62.0735V125.774C62.0735 123.934 62.6175 122.318 63.9935 122.318C64.2335 122.318 64.5215 122.366 64.6655 122.446L65.0495 120.574C64.7935 120.446 64.4575 120.382 64.1375 120.382C63.2415 120.382 62.4415 120.846 61.9615 121.998L61.9775 120.59H60.0895ZM76.1938 118.366C75.3778 117.694 74.0338 117.422 73.0418 117.422C72.0018 117.422 71.0738 117.694 70.3058 118.27C69.6338 118.782 69.1698 119.486 69.1698 120.574C69.1698 124.414 74.3858 123.358 74.3858 125.63C74.3858 126.846 73.6178 127.086 72.7057 127.086C71.7778 127.086 70.7698 126.846 70.0178 126.238L68.9938 127.742C69.8258 128.542 71.3298 128.846 72.4658 128.846C73.5058 128.846 74.4338 128.59 75.1698 128.094C75.9218 127.582 76.4498 126.75 76.4498 125.55C76.4498 121.614 71.2338 122.574 71.2338 120.51C71.2338 119.454 71.8738 119.182 72.8177 119.182C73.5378 119.182 74.4978 119.342 75.2178 119.838L76.1938 118.366ZM78.1833 116.414V128.654H80.1673V125.662C80.1673 123.166 81.1273 122.19 82.0713 122.19C82.7273 122.19 82.9353 122.638 82.9353 123.486V128.654H84.9193V123.166C84.9193 121.39 84.0553 120.382 82.5673 120.382C81.4153 120.382 80.5353 121.006 80.1673 121.822V116.414H78.1833ZM87.8404 122.734C88.3844 122.174 89.0084 121.966 89.8244 121.966C90.8804 121.966 91.2484 122.318 91.2484 123.438V123.742H90.2404C89.0884 123.742 88.1604 123.902 87.4244 124.414C86.8004 124.846 86.4644 125.422 86.4644 126.414C86.4644 127.214 86.6884 127.774 87.1364 128.206C87.5524 128.59 88.0964 128.846 88.8804 128.846C89.8884 128.846 90.7844 128.43 91.3604 127.486V128.654H93.1204V123.422C93.1204 121.246 92.0484 120.414 89.9204 120.414C88.6724 120.414 87.6164 120.702 86.8324 121.566L87.8404 122.734ZM91.2644 125.102C91.2004 126.59 90.0484 127.326 89.2164 127.326C88.6084 127.326 88.4004 126.942 88.4004 126.318C88.4004 125.262 89.0244 125.102 90.0964 125.102H91.2644ZM95.3395 120.59V128.654H97.3235V125.774C97.3235 123.934 97.8675 122.318 99.2435 122.318C99.4835 122.318 99.7715 122.366 99.9155 122.446L100.3 120.574C100.044 120.446 99.7075 120.382 99.3875 120.382C98.4915 120.382 97.6915 120.846 97.2115 121.998L97.2275 120.59H95.3395ZM101.73 120.59V128.654H103.714V120.59H101.73ZM101.522 117.886C101.522 118.59 102.034 119.102 102.722 119.102C103.41 119.102 103.922 118.59 103.922 117.886C103.922 117.198 103.41 116.67 102.722 116.67C102.034 116.67 101.522 117.198 101.522 117.886ZM106.011 120.59V128.654H107.995V125.614C107.995 123.246 108.875 122.19 109.899 122.19C110.571 122.19 110.763 122.654 110.763 123.566V128.654H112.747V123.166C112.747 121.422 111.915 120.382 110.379 120.382C109.163 120.382 108.331 121.006 107.883 121.998V120.59H106.011ZM120.101 120.59L120.069 121.47C119.525 120.686 118.725 120.414 117.829 120.414C116.757 120.414 116.069 120.814 115.573 121.358C114.868 122.142 114.629 123.262 114.629 124.638C114.629 126.014 114.868 127.134 115.413 127.806C115.861 128.398 116.549 128.75 117.445 128.75C118.469 128.75 119.365 128.302 119.877 127.438V128.782C119.877 130.03 119.589 130.766 117.924 130.766C117.109 130.766 116.357 130.59 115.717 130.094L114.741 131.534C115.525 132.206 116.661 132.462 117.829 132.462C121.013 132.462 121.812 130.606 121.812 128.734V120.59H120.101ZM117.924 127.07C116.965 127.07 116.725 126.318 116.725 124.67C116.725 122.958 116.981 122.078 118.181 122.078C118.677 122.078 119.077 122.254 119.365 122.542C119.797 122.99 119.909 123.55 119.909 124.19C119.909 125.23 119.621 125.934 119.173 126.446C118.805 126.878 118.405 127.07 117.924 127.07ZM133.85 122.91C133.834 123.726 133.674 124.462 133.338 125.15L131.658 123.39C130.362 122.062 129.69 121.374 129.69 120.302C129.69 119.486 130.058 119.102 130.922 119.102C131.498 119.102 131.962 119.262 132.362 119.614L133.466 118.318C132.89 117.758 132.058 117.454 131.034 117.454C129.914 117.454 129.114 117.822 128.586 118.318C128.042 118.862 127.77 119.566 127.77 120.398C127.77 121.31 128.09 121.998 128.698 122.75C127.642 123.566 127.05 124.606 127.05 125.886C127.05 126.83 127.37 127.518 127.962 128.014C128.57 128.558 129.482 128.846 130.554 128.846C131.77 128.846 132.65 128.446 133.45 127.678L134.394 128.654H136.714L134.506 126.366C135.194 125.31 135.594 124.11 135.61 122.91H133.85ZM132.33 126.558C131.754 127.118 131.178 127.278 130.554 127.278C129.546 127.278 128.89 126.878 128.89 125.79C128.89 124.942 129.274 124.398 129.85 123.998L132.33 126.558ZM141.513 117.614V128.654H147.753V126.83H143.545V117.614H141.513ZM154.61 126.318C153.986 126.894 153.25 127.23 152.354 127.23C150.946 127.23 150.722 126.43 150.706 125.086L155.65 125.054C155.698 124.702 155.73 124.318 155.73 124.014C155.73 121.982 154.866 120.382 152.402 120.382C151.09 120.382 150.258 120.83 149.714 121.438C148.978 122.254 148.722 123.518 148.722 124.83C148.722 126.366 149.058 127.326 149.746 127.966C150.354 128.526 151.106 128.83 152.306 128.83C153.698 128.83 154.738 128.414 155.618 127.502L154.61 126.318ZM150.754 123.662C150.786 122.606 151.122 121.902 152.354 121.902C153.538 121.902 153.762 122.558 153.762 123.662H150.754ZM158.247 122.734C158.791 122.174 159.415 121.966 160.231 121.966C161.287 121.966 161.655 122.318 161.655 123.438V123.742H160.647C159.495 123.742 158.567 123.902 157.831 124.414C157.207 124.846 156.871 125.422 156.871 126.414C156.871 127.214 157.095 127.774 157.543 128.206C157.959 128.59 158.503 128.846 159.287 128.846C160.295 128.846 161.191 128.43 161.767 127.486V128.654H163.527V123.422C163.527 121.246 162.455 120.414 160.327 120.414C159.079 120.414 158.023 120.702 157.239 121.566L158.247 122.734ZM161.671 125.102C161.607 126.59 160.455 127.326 159.623 127.326C159.015 127.326 158.807 126.942 158.807 126.318C158.807 125.262 159.431 125.102 160.503 125.102H161.671ZM165.746 120.59V128.654H167.73V125.774C167.73 123.934 168.274 122.318 169.65 122.318C169.89 122.318 170.178 122.366 170.322 122.446L170.706 120.574C170.45 120.446 170.114 120.382 169.794 120.382C168.898 120.382 168.098 120.846 167.618 121.998L167.634 120.59H165.746ZM172.136 120.59V128.654H174.12V125.614C174.12 123.246 175 122.19 176.024 122.19C176.696 122.19 176.888 122.654 176.888 123.566V128.654H178.872V123.166C178.872 121.422 178.04 120.382 176.504 120.382C175.288 120.382 174.456 121.006 174.008 121.998V120.59H172.136ZM186.642 126.318C186.018 126.894 185.282 127.23 184.386 127.23C182.978 127.23 182.754 126.43 182.738 125.086L187.682 125.054C187.73 124.702 187.762 124.318 187.762 124.014C187.762 121.982 186.898 120.382 184.434 120.382C183.122 120.382 182.289 120.83 181.746 121.438C181.01 122.254 180.754 123.518 180.754 124.83C180.754 126.366 181.09 127.326 181.778 127.966C182.386 128.526 183.138 128.83 184.338 128.83C185.73 128.83 186.77 128.414 187.65 127.502L186.642 126.318ZM182.786 123.662C182.818 122.606 183.154 121.902 184.386 121.902C185.57 121.902 185.794 122.558 185.794 123.662H182.786ZM189.73 120.59V128.654H191.714V125.774C191.714 123.934 192.258 122.318 193.634 122.318C193.874 122.318 194.162 122.366 194.306 122.446L194.69 120.574C194.434 120.446 194.098 120.382 193.778 120.382C192.882 120.382 192.082 120.846 191.602 121.998L191.618 120.59H189.73ZM199.466 117.614V128.654H201.498V117.614H199.466ZM203.886 120.59V128.654H205.87V125.614C205.87 123.246 206.75 122.19 207.774 122.19C208.446 122.19 208.638 122.654 208.638 123.566V128.654H210.622V123.166C210.622 121.422 209.79 120.382 208.254 120.382C207.038 120.382 206.206 121.006 205.758 121.998V120.59H203.886ZM217.992 121.31C217.368 120.654 216.391 120.414 215.432 120.414C213.688 120.414 212.264 121.198 212.264 122.83C212.264 125.678 216.28 125.006 216.28 126.43C216.28 127.118 215.768 127.294 215.064 127.294C214.264 127.294 213.576 127.07 213.08 126.574L212.104 127.838C212.728 128.558 213.864 128.83 214.904 128.83C216.536 128.83 218.168 128.174 218.168 126.318C218.168 123.406 214.184 124.014 214.184 122.718C214.184 122.158 214.568 121.966 215.272 121.966C215.911 121.966 216.52 122.142 217.016 122.542L217.992 121.31ZM226.433 128.654V120.59H224.449V123.71C224.449 126.078 223.553 127.07 222.641 127.07C221.953 127.07 221.777 126.494 221.777 125.71V120.59H219.793V126.062C219.793 127.854 220.593 128.846 222.129 128.846C223.313 128.846 224.145 128.254 224.593 127.246V128.654H226.433ZM228.73 120.59V128.654H230.714V125.902C230.714 124.142 231.066 122.366 232.458 122.366C232.57 122.366 232.73 122.382 232.874 122.398L233.034 120.462C232.89 120.43 232.73 120.414 232.554 120.414C231.658 120.414 230.97 121.022 230.602 121.982L230.618 120.59H228.73ZM234.981 122.734C235.525 122.174 236.149 121.966 236.965 121.966C238.021 121.966 238.389 122.318 238.389 123.438V123.742H237.381C236.229 123.742 235.301 123.902 234.565 124.414C233.941 124.846 233.605 125.422 233.605 126.414C233.605 127.214 233.829 127.774 234.277 128.206C234.693 128.59 235.237 128.846 236.021 128.846C237.029 128.846 237.925 128.43 238.501 127.486V128.654H240.261V123.422C240.261 121.246 239.189 120.414 237.061 120.414C235.813 120.414 234.757 120.702 233.973 121.566L234.981 122.734ZM238.405 125.102C238.341 126.59 237.189 127.326 236.357 127.326C235.749 127.326 235.541 126.942 235.541 126.318C235.541 125.262 236.165 125.102 237.237 125.102H238.405ZM242.48 120.59V128.654H244.464V125.614C244.464 123.246 245.344 122.19 246.368 122.19C247.04 122.19 247.232 122.654 247.232 123.566V128.654H249.216V123.166C249.216 121.422 248.384 120.382 246.848 120.382C245.632 120.382 244.8 121.006 244.352 121.998V120.59H242.48ZM256.265 126.254C255.785 126.798 255.177 127.102 254.521 127.102C253.433 127.102 253.177 126.27 253.177 124.59C253.177 122.91 253.433 122.126 254.745 122.126C255.289 122.126 255.769 122.27 256.217 122.67L257.337 121.326C256.649 120.622 255.689 120.382 254.713 120.382C253.481 120.382 252.681 120.766 252.137 121.326C251.321 122.19 251.097 123.39 251.097 124.718C251.097 126.046 251.321 127.07 251.993 127.838C252.505 128.43 253.273 128.814 254.425 128.814C255.657 128.814 256.713 128.382 257.449 127.486L256.265 126.254ZM264.345 126.318C263.721 126.894 262.985 127.23 262.089 127.23C260.681 127.23 260.457 126.43 260.441 125.086L265.385 125.054C265.433 124.702 265.465 124.318 265.465 124.014C265.465 121.982 264.601 120.382 262.137 120.382C260.825 120.382 259.993 120.83 259.449 121.438C258.713 122.254 258.457 123.518 258.457 124.83C258.457 126.366 258.793 127.326 259.481 127.966C260.089 128.526 260.841 128.83 262.041 128.83C263.433 128.83 264.473 128.414 265.353 127.502L264.345 126.318ZM260.489 123.662C260.521 122.606 260.857 121.902 262.089 121.902C263.273 121.902 263.497 122.558 263.497 123.662H260.489Z" fill="#444240"/>
</g>
<defs>
<clipPath id="clip0_2170_5668">
<path d="M0 8.6543C0 4.23602 3.58172 0.654297 8 0.654297H300C304.418 0.654297 308 4.23602 308 8.6543V140.654C308 145.073 304.418 148.654 300 148.654H8C3.58172 148.654 0 145.073 0 140.654V8.6543Z" fill="white"/>
</clipPath>
</defs>
</svg>
