<svg width="308" height="149" viewBox="0 0 308 149" fill="none" xmlns="http://www.w3.org/2000/svg">
<g clip-path="url(#clip0_2170_5682)">
<path d="M0 8.6543C0 4.23602 3.58172 0.654297 8 0.654297H300C304.418 0.654297 308 4.23602 308 8.6543V140.654C308 145.073 304.418 148.654 300 148.654H8C3.58172 148.654 0 145.073 0 140.654V8.6543Z" fill="white"/>
<rect width="308" height="100" transform="translate(0 0.654297)" fill="#0045A0"/>
<path fill-rule="evenodd" clip-rule="evenodd" d="M151.189 42.392C151.531 42.0501 151.531 41.7082 151.189 41.3663L148.682 38.9732C148.34 38.6313 147.998 38.6313 147.656 38.9732L144.693 41.9361L150.049 43.4176L151.189 42.392Z" fill="white"/>
<path fill-rule="evenodd" clip-rule="evenodd" d="M163.838 53.7877C163.496 53.4458 163.155 53.4458 162.813 53.7877L161.787 54.8133L163.269 60.1693L166.231 57.2064C166.573 56.8645 166.573 56.5227 166.231 56.1808L163.838 53.7877Z" fill="white"/>
<path fill-rule="evenodd" clip-rule="evenodd" d="M165.889 45.2415C167.37 43.874 168.738 38.8599 167.826 37.9482C166.914 37.0365 161.9 38.404 160.533 39.8855L155.063 45.5834C150.96 44.7857 138.767 42.3926 137.285 42.1647C135.918 42.9624 134.664 43.874 134.664 43.874L148.453 52.5349L142.983 58.2328L138.425 57.777L136.487 59.7143L140.932 61.9934L140.02 65.4122L143.439 64.5005L145.832 69.0589L147.769 67.1216L147.313 62.6772L153.011 57.3211L161.33 70.6543C161.33 70.6543 162.356 69.4008 163.04 68.0332C162.812 66.6657 160.647 55.4978 159.735 50.9395L165.889 45.2415Z" fill="white"/>
<path d="M97.0432 117.614V119.438H100.147V128.654H102.195V119.438H105.299V117.614H97.0432ZM106.613 120.59V128.654H108.597V125.902C108.597 124.142 108.949 122.366 110.341 122.366C110.453 122.366 110.613 122.382 110.757 122.398L110.917 120.462C110.773 120.43 110.613 120.414 110.437 120.414C109.541 120.414 108.853 121.022 108.485 121.982L108.501 120.59H106.613ZM112.864 122.734C113.408 122.174 114.032 121.966 114.848 121.966C115.904 121.966 116.272 122.318 116.272 123.438V123.742H115.264C114.112 123.742 113.184 123.902 112.448 124.414C111.824 124.846 111.488 125.422 111.488 126.414C111.488 127.214 111.712 127.774 112.16 128.206C112.576 128.59 113.12 128.846 113.904 128.846C114.912 128.846 115.808 128.43 116.384 127.486V128.654H118.144V123.422C118.144 121.246 117.072 120.414 114.944 120.414C113.696 120.414 112.64 120.702 111.856 121.566L112.864 122.734ZM116.288 125.102C116.224 126.59 115.072 127.326 114.24 127.326C113.632 127.326 113.424 126.942 113.424 126.318C113.424 125.262 114.048 125.102 115.12 125.102H116.288ZM119.295 120.59L121.935 128.654H124.191L126.863 120.59H124.783L123.119 126.558L121.439 120.59H119.295ZM133.602 126.318C132.978 126.894 132.242 127.23 131.346 127.23C129.938 127.23 129.714 126.43 129.698 125.086L134.642 125.054C134.69 124.702 134.722 124.318 134.722 124.014C134.722 121.982 133.858 120.382 131.394 120.382C130.082 120.382 129.25 120.83 128.706 121.438C127.97 122.254 127.714 123.518 127.714 124.83C127.714 126.366 128.05 127.326 128.738 127.966C129.346 128.526 130.098 128.83 131.298 128.83C132.69 128.83 133.73 128.414 134.61 127.502L133.602 126.318ZM129.746 123.662C129.778 122.606 130.114 121.902 131.346 121.902C132.53 121.902 132.754 122.558 132.754 123.662H129.746ZM136.691 116.414V128.654H138.675V116.414H136.691ZM144.318 117.614V128.654H146.35V117.614H144.318ZM148.738 120.59V128.654H150.722V125.614C150.722 123.246 151.602 122.19 152.626 122.19C153.298 122.19 153.49 122.654 153.49 123.566V128.654H155.474V123.166C155.474 121.422 154.642 120.382 153.106 120.382C151.89 120.382 151.058 121.006 150.61 121.998V120.59H148.738ZM162.843 121.31C162.219 120.654 161.243 120.414 160.283 120.414C158.539 120.414 157.115 121.198 157.115 122.83C157.115 125.678 161.131 125.006 161.131 126.43C161.131 127.118 160.619 127.294 159.915 127.294C159.115 127.294 158.427 127.07 157.931 126.574L156.955 127.838C157.579 128.558 158.715 128.83 159.755 128.83C161.387 128.83 163.019 128.174 163.019 126.318C163.019 123.406 159.035 124.014 159.035 122.718C159.035 122.158 159.419 121.966 160.123 121.966C160.763 121.966 161.371 122.142 161.867 122.542L162.843 121.31ZM171.284 128.654V120.59H169.3V123.71C169.3 126.078 168.404 127.07 167.492 127.07C166.804 127.07 166.628 126.494 166.628 125.71V120.59H164.644V126.062C164.644 127.854 165.444 128.846 166.98 128.846C168.164 128.846 168.996 128.254 169.444 127.246V128.654H171.284ZM173.582 120.59V128.654H175.566V125.902C175.566 124.142 175.918 122.366 177.31 122.366C177.422 122.366 177.582 122.382 177.726 122.398L177.886 120.462C177.742 120.43 177.582 120.414 177.406 120.414C176.51 120.414 175.822 121.022 175.454 121.982L175.47 120.59H173.582ZM179.833 122.734C180.377 122.174 181.001 121.966 181.817 121.966C182.873 121.966 183.241 122.318 183.241 123.438V123.742H182.233C181.081 123.742 180.153 123.902 179.417 124.414C178.793 124.846 178.457 125.422 178.457 126.414C178.457 127.214 178.681 127.774 179.129 128.206C179.545 128.59 180.089 128.846 180.873 128.846C181.881 128.846 182.777 128.43 183.353 127.486V128.654H185.113V123.422C185.113 121.246 184.041 120.414 181.913 120.414C180.665 120.414 179.609 120.702 178.825 121.566L179.833 122.734ZM183.257 125.102C183.193 126.59 182.041 127.326 181.209 127.326C180.601 127.326 180.393 126.942 180.393 126.318C180.393 125.262 181.017 125.102 182.089 125.102H183.257ZM187.332 120.59V128.654H189.316V125.614C189.316 123.246 190.196 122.19 191.22 122.19C191.892 122.19 192.084 122.654 192.084 123.566V128.654H194.068V123.166C194.068 121.422 193.236 120.382 191.7 120.382C190.484 120.382 189.652 121.006 189.204 121.998V120.59H187.332ZM201.117 126.254C200.637 126.798 200.029 127.102 199.373 127.102C198.285 127.102 198.029 126.27 198.029 124.59C198.029 122.91 198.285 122.126 199.597 122.126C200.141 122.126 200.621 122.27 201.069 122.67L202.189 121.326C201.501 120.622 200.541 120.382 199.565 120.382C198.333 120.382 197.533 120.766 196.989 121.326C196.173 122.19 195.949 123.39 195.949 124.718C195.949 126.046 196.173 127.07 196.845 127.838C197.357 128.43 198.125 128.814 199.277 128.814C200.509 128.814 201.565 128.382 202.301 127.486L201.117 126.254ZM209.196 126.318C208.572 126.894 207.836 127.23 206.94 127.23C205.532 127.23 205.308 126.43 205.292 125.086L210.236 125.054C210.284 124.702 210.316 124.318 210.316 124.014C210.316 121.982 209.452 120.382 206.988 120.382C205.676 120.382 204.844 120.83 204.3 121.438C203.564 122.254 203.308 123.518 203.308 124.83C203.308 126.366 203.644 127.326 204.332 127.966C204.94 128.526 205.692 128.83 206.892 128.83C208.284 128.83 209.324 128.414 210.204 127.502L209.196 126.318ZM205.34 123.662C205.372 122.606 205.708 121.902 206.94 121.902C208.124 121.902 208.348 122.558 208.348 123.662H205.34Z" fill="#444240"/>
</g>
<defs>
<clipPath id="clip0_2170_5682">
<path d="M0 8.6543C0 4.23602 3.58172 0.654297 8 0.654297H300C304.418 0.654297 308 4.23602 308 8.6543V140.654C308 145.073 304.418 148.654 300 148.654H8C3.58172 148.654 0 145.073 0 140.654V8.6543Z" fill="white"/>
</clipPath>
</defs>
</svg>
