<svg xmlns="http://www.w3.org/2000/svg" width="23" height="24" viewBox="0 0 23 24">
    <defs>
        <filter id="wfu2nwlqca">
            <feColorMatrix in="SourceGraphic" values="0 0 0 0 0.290598 0 0 0 0 0.274677 0 0 0 0 0.262010 0 0 0 1.000000 0"/>
        </filter>
    </defs>
    <g fill="none" fill-rule="evenodd">
        <g filter="none" transform="translate(-276 -409)">
            <g>
                <path fill="#4a4643" d="M5.963 16.072c.004-1.132-.947-2.056-2.11-2.072-1.286-.016-2.19 1.144-2.148 2.156.033.806.794 2.022 2.135 2.01 1.178-.01 2.12-.928 2.123-2.094m15.333.008c.002-1.147-.955-2.074-2.123-2.08-1.27-.007-2.18 1.12-2.134 2.167.037.847.819 2.007 2.128 2 1.18-.007 2.127-.927 2.13-2.087M4.258 11.5c4.092-.463 10.333-.505 14.482 0-.01-.037-.443-2.67-1.097-4.886-.275-1.204-11.84-1.336-12.297.043-.679 2.04-1.088 4.843-1.088 4.843m.935 8.778v2.25c0 1.326-.434 1.467-2.105 1.467-1.63 0-2.149-.033-2.158-1.386C.927 22.068.93 20.64.93 20.083c-.068-.004-.923-.164-.925-.427-.012-1.607.002-3.212.002-4.818 0-2.132 1.662-2.811 1.662-2.811s.843-3.325 1.254-4.99c.355-1.323.802-2.342 3.605-2.782 2.941-.34 7.095-.34 9.946-.003 2.515.339 3.207 1.246 3.57 2.662.43 1.682 1.267 5.052 1.267 5.052s1.68.906 1.68 2.926c.017 1.577.005 3.156.005 4.734 0 .303-.948.455-.985.463V21.68c0 2.175-.428 2.321-2.022 2.321-1.88 0-2.247-.146-2.247-2.316.005-.469.001-.748.001-1.217v-.19c-3.787.44-8.657.44-12.549.001" transform="translate(276 409)"/>
            </g>
        </g>
    </g>
</svg>
 