<svg width="308" height="149" viewBox="0 0 308 149" fill="none" xmlns="http://www.w3.org/2000/svg">
<g clip-path="url(#clip0_2170_5693)">
<path d="M0 8.6543C0 4.23602 3.58172 0.654297 8 0.654297H300C304.418 0.654297 308 4.23602 308 8.6543V140.654C308 145.073 304.418 148.654 300 148.654H8C3.58172 148.654 0 145.073 0 140.654V8.6543Z" fill="white"/>
<rect width="308" height="100" transform="translate(0 0.654297)" fill="#0045A0"/>
<path fill-rule="evenodd" clip-rule="evenodd" d="M162.666 60.6647C162.141 64.5539 159.513 66.6562 155.729 63.713C154.362 62.6619 153.732 60.8749 150.578 60.5596C147.425 60.2442 146.689 60.8749 144.376 61.4005C139.962 62.4516 138.595 60.4545 138.91 57.301C139.541 51.9402 145.848 46.4742 152.365 47.5254C158.987 48.4714 163.402 55.3039 162.666 60.6647Z" fill="white"/>
<path fill-rule="evenodd" clip-rule="evenodd" d="M150.681 40.7989C150.261 43.2165 148.264 44.7932 146.161 44.2677C144.059 43.8472 142.693 41.5347 143.113 39.117C143.534 36.6994 145.636 34.2818 147.738 34.7022C149.946 35.2278 151.102 38.3812 150.681 40.7989Z" fill="white"/>
<path fill-rule="evenodd" clip-rule="evenodd" d="M142.694 45.3189C142.799 47.316 141.327 48.9979 139.33 49.103C137.438 49.2081 135.861 47.6314 135.756 45.6342C135.651 43.637 136.912 41.1143 138.804 41.0092C140.696 40.9041 142.589 43.3217 142.694 45.3189Z" fill="white"/>
<path fill-rule="evenodd" clip-rule="evenodd" d="M153.626 41.7448C153.416 44.1624 154.993 46.2647 157.095 46.4749C159.197 46.6851 161.089 44.8982 161.3 42.4806C161.51 40.0629 159.723 37.0146 157.621 36.8044C155.518 36.5942 153.836 39.3271 153.626 41.7448Z" fill="white"/>
<path fill-rule="evenodd" clip-rule="evenodd" d="M160.037 47.8409C159.616 49.8381 161.088 51.7302 163.19 52.1506C165.292 52.5711 167.29 51.3097 167.605 49.3125C168.025 47.3154 166.764 44.5824 164.662 44.1619C162.454 43.8466 160.352 45.8438 160.037 47.8409Z" fill="white"/>
<path d="M107.365 117.614V128.654H109.397V124.91H111.269C112.325 124.91 113.157 124.718 113.813 124.222C114.549 123.678 114.981 122.75 114.981 121.214C114.981 119.63 114.517 118.782 113.829 118.27C113.157 117.774 112.229 117.614 111.333 117.614H107.365ZM109.397 119.39H111.189C111.797 119.39 112.149 119.438 112.421 119.678C112.677 119.902 112.853 120.35 112.853 121.262C112.853 122.014 112.757 122.51 112.469 122.782C112.245 123.022 111.877 123.134 111.269 123.134H109.397V119.39ZM122.009 126.318C121.385 126.894 120.649 127.23 119.753 127.23C118.345 127.23 118.121 126.43 118.105 125.086L123.049 125.054C123.097 124.702 123.129 124.318 123.129 124.014C123.129 121.982 122.265 120.382 119.801 120.382C118.489 120.382 117.657 120.83 117.113 121.438C116.377 122.254 116.121 123.518 116.121 124.83C116.121 126.366 116.457 127.326 117.145 127.966C117.753 128.526 118.505 128.83 119.705 128.83C121.097 128.83 122.137 128.414 123.017 127.502L122.009 126.318ZM118.153 123.662C118.185 122.606 118.521 121.902 119.753 121.902C120.937 121.902 121.161 122.558 121.161 123.662H118.153ZM129.679 126.894C129.327 126.974 128.879 127.022 128.527 127.022C127.567 127.022 127.503 126.654 127.503 125.678V122.462H129.727V120.718H127.503V118.254L125.519 118.446V120.718H124.207V122.462H125.519V125.806C125.519 127.774 126.047 128.75 128.175 128.75C128.703 128.75 129.343 128.686 129.823 128.558L129.679 126.894ZM135.052 117.614V128.654H137.084V117.614H135.052ZM139.472 120.59V128.654H141.456V125.614C141.456 123.246 142.336 122.19 143.36 122.19C144.032 122.19 144.224 122.654 144.224 123.566V128.654H146.208V123.166C146.208 121.422 145.376 120.382 143.84 120.382C142.624 120.382 141.792 121.006 141.344 121.998V120.59H139.472ZM153.577 121.31C152.953 120.654 151.977 120.414 151.017 120.414C149.273 120.414 147.849 121.198 147.849 122.83C147.849 125.678 151.865 125.006 151.865 126.43C151.865 127.118 151.353 127.294 150.649 127.294C149.849 127.294 149.161 127.07 148.665 126.574L147.689 127.838C148.313 128.558 149.449 128.83 150.489 128.83C152.121 128.83 153.753 128.174 153.753 126.318C153.753 123.406 149.769 124.014 149.769 122.718C149.769 122.158 150.153 121.966 150.857 121.966C151.497 121.966 152.105 122.142 152.601 122.542L153.577 121.31ZM162.019 128.654V120.59H160.035V123.71C160.035 126.078 159.139 127.07 158.227 127.07C157.539 127.07 157.363 126.494 157.363 125.71V120.59H155.379V126.062C155.379 127.854 156.179 128.846 157.715 128.846C158.899 128.846 159.731 128.254 160.179 127.246V128.654H162.019ZM164.316 120.59V128.654H166.3V125.902C166.3 124.142 166.652 122.366 168.044 122.366C168.156 122.366 168.316 122.382 168.46 122.398L168.62 120.462C168.476 120.43 168.316 120.414 168.14 120.414C167.244 120.414 166.556 121.022 166.188 121.982L166.204 120.59H164.316ZM170.567 122.734C171.111 122.174 171.735 121.966 172.551 121.966C173.607 121.966 173.975 122.318 173.975 123.438V123.742H172.967C171.815 123.742 170.887 123.902 170.151 124.414C169.527 124.846 169.191 125.422 169.191 126.414C169.191 127.214 169.415 127.774 169.863 128.206C170.279 128.59 170.823 128.846 171.607 128.846C172.615 128.846 173.511 128.43 174.087 127.486V128.654H175.847V123.422C175.847 121.246 174.775 120.414 172.647 120.414C171.399 120.414 170.343 120.702 169.559 121.566L170.567 122.734ZM173.991 125.102C173.927 126.59 172.775 127.326 171.943 127.326C171.335 127.326 171.127 126.942 171.127 126.318C171.127 125.262 171.751 125.102 172.823 125.102H173.991ZM178.066 120.59V128.654H180.05V125.614C180.05 123.246 180.93 122.19 181.954 122.19C182.626 122.19 182.818 122.654 182.818 123.566V128.654H184.802V123.166C184.802 121.422 183.97 120.382 182.434 120.382C181.218 120.382 180.386 121.006 179.938 121.998V120.59H178.066ZM191.851 126.254C191.371 126.798 190.763 127.102 190.107 127.102C189.019 127.102 188.763 126.27 188.763 124.59C188.763 122.91 189.019 122.126 190.331 122.126C190.875 122.126 191.355 122.27 191.803 122.67L192.923 121.326C192.235 120.622 191.275 120.382 190.299 120.382C189.067 120.382 188.267 120.766 187.723 121.326C186.907 122.19 186.683 123.39 186.683 124.718C186.683 126.046 186.907 127.07 187.579 127.838C188.091 128.43 188.859 128.814 190.011 128.814C191.243 128.814 192.299 128.382 193.035 127.486L191.851 126.254ZM199.931 126.318C199.307 126.894 198.571 127.23 197.675 127.23C196.267 127.23 196.043 126.43 196.027 125.086L200.971 125.054C201.019 124.702 201.051 124.318 201.051 124.014C201.051 121.982 200.187 120.382 197.723 120.382C196.411 120.382 195.579 120.83 195.035 121.438C194.299 122.254 194.043 123.518 194.043 124.83C194.043 126.366 194.379 127.326 195.067 127.966C195.675 128.526 196.427 128.83 197.627 128.83C199.019 128.83 200.059 128.414 200.939 127.502L199.931 126.318ZM196.075 123.662C196.107 122.606 196.443 121.902 197.675 121.902C198.859 121.902 199.083 122.558 199.083 123.662H196.075Z" fill="#444240"/>
</g>
<defs>
<clipPath id="clip0_2170_5693">
<path d="M0 8.6543C0 4.23602 3.58172 0.654297 8 0.654297H300C304.418 0.654297 308 4.23602 308 8.6543V140.654C308 145.073 304.418 148.654 300 148.654H8C3.58172 148.654 0 145.073 0 140.654V8.6543Z" fill="white"/>
</clipPath>
</defs>
</svg>
